<svg id="Play" xmlns="http://www.w3.org/2000/svg" width="60.801" height="60.801" viewBox="0 0 60.801 60.801">
  <path id="Fill_1" data-name="Fill 1" d="M60.8,30.415A30.4,30.4,0,1,1,30.4,0,30.437,30.437,0,0,1,60.8,30.415" fill="#f9ffff" opacity="0.33"/>
  <path id="Fill_4" data-name="Fill 4" d="M21.28,12.175a3.5,3.5,0,0,1-.725,2.157,11.738,11.738,0,0,1-.846.946l-.181.177C16.988,18.147,10.67,22.2,7.466,23.493a10.563,10.563,0,0,1-2.811.827H4.534a3.814,3.814,0,0,1-3.355-2.006,16.6,16.6,0,0,1-.725-2.689A53.593,53.593,0,0,1,0,12.145,46.248,46.248,0,0,1,.514,4.433a19.4,19.4,0,0,1,.544-2.157A3.877,3.877,0,0,1,2.751.443,4.323,4.323,0,0,1,4.655,0,10.467,10.467,0,0,1,7.164.68,46.281,46.281,0,0,1,19.5,8.836c.423.414.877.919,1,1.034a3.677,3.677,0,0,1,.786,2.3" transform="translate(20.28 18.24)" fill="#f9ffff"/>
</svg>
